PathFileType	4	(X/Y/Z)	C:\Users\Basilio\Documents\Thesis Gigler\squatting_fais\c3dfiles\058\SJ_pre4\markers_experimental.trc
DataRate	CameraRate	NumFrames	NumMarkers	Units	OrigDataRate	OrigDataStartFrame	OrigNumFrames
200.000000	200.000000	4	61	mm	200.000000	483	1290
Frame#	Time	FHD			LBHD			RBHD			C7			T10			CLAV			LSHO			LUUPA			LMUPA			LDUPA			LLEP			LMEP			LRAD			LUL			LRFIN			RSHO			RUPA1			RMUPA			RDUPA			RLEP			RMEP			RRAD			RUL			RUFIN			LASI			RASI			USACR			LSACR			RSACR			LTHI1			LTHI2			LTHI3			LTHI4			LLFC			LMFC			LTIB1			LTIB2			LTIB3			LTIB4			LLMAL			LMMAL			LHEE			LMT1			LMT2			LMT5			RTHI			RTHI2			RTHI3			RTHI4			RLFC			RMFC			RTIB1			RTIB2			RTIB3			RTIB4			RLMAL			RMMAL			RHEE			RMT1			RMT2			RMT5			
		X1	Y1	Z1	X2	Y2	Z2	X3	Y3	Z3	X4	Y4	Z4	X5	Y5	Z5	X6	Y6	Z6	X7	Y7	Z7	X8	Y8	Z8	X9	Y9	Z9	X10	Y10	Z10	X11	Y11	Z11	X12	Y12	Z12	X13	Y13	Z13	X14	Y14	Z14	X15	Y15	Z15	X16	Y16	Z16	X17	Y17	Z17	X18	Y18	Z18	X19	Y19	Z19	X20	Y20	Z20	X21	Y21	Z21	X22	Y22	Z22	X23	Y23	Z23	X24	Y24	Z24	X25	Y25	Z25	X26	Y26	Z26	X27	Y27	Z27	X28	Y28	Z28	X29	Y29	Z29	X30	Y30	Z30	X31	Y31	Z31	X32	Y32	Z32	X33	Y33	Z33	X34	Y34	Z34	X35	Y35	Z35	X36	Y36	Z36	X37	Y37	Z37	X38	Y38	Z38	X39	Y39	Z39	X40	Y40	Z40	X41	Y41	Z41	X42	Y42	Z42	X43	Y43	Z43	X44	Y44	Z44	X45	Y45	Z45	X46	Y46	Z46	X47	Y47	Z47	X48	Y48	Z48	X49	Y49	Z49	X50	Y50	Z50	X51	Y51	Z51	X52	Y52	Z52	X53	Y53	Z53	X54	Y54	Z54	X55	Y55	Z55	X56	Y56	Z56	X57	Y57	Z57	X58	Y58	Z58	X59	Y59	Z59	X60	Y60	Z60	X61	Y61	Z61	

484	2.415	82.29631805419923	1079.078735351563	-833.3945922851565	-79.62681579589845	1050.093139648438	-906.7195434570315	93.16845703125001	1088.974365234375	-975.2039794921877	-122.7680892944336	986.435729980469	-926.4388427734377	-380.4120178222657	836.8731079101565	-911.301940917969	-39.30172348022462	835.2502441406252	-902.664001464844	0.7456364631652833	867.0879516601565	-1065.494506835938	-150.9025115966797	884.8371582031252	-1242.760131835938	-170.3325653076172	837.9004516601565	-1244.751708984375	-205.7112121582032	868.769714355469	-1281.164672851563	-290.7406921386719	850.5298461914065	-1313.11181640625	-327.8007202148438	905.2073974609377	-1270.298461914063	-447.3774719238282	740.3175659179689	-1112.068481445313	-392.3165893554689	703.7072143554689	-1088.287231445313	-457.540740966797	676.2503051757814	-1161.55224609375	-15.66962146759034	897.8149414062502	-741.8792724609376	-181.6932830810547	945.254577636719	-593.0139770507814	-201.6597137451172	899.8735961914065	-587.2098999023439	-240.9534301757813	930.4634399414065	-556.8076782226564	-310.2465515136719	931.512634277344	-527.1071166992189	-360.1725769042969	966.581237792969	-594.5615234375001	-421.7095031738282	748.8859863281251	-696.0662231445314	-422.1468200683595	698.0138549804689	-632.9387207031251	-378.7161254882813	690.9781494140626	-728.9890136718751	-417.9226074218751	579.7827148437501	-1024.91845703125	-414.5573120117189	575.3840942382814	-798.1011962890627	-505.2529602050782	759.9401245117189	-901.179870605469	-533.9797363281251	742.1467285156251	-928.6140747070315	-534.1315307617189	742.2738647460939	-871.7725219726565	-342.4116210937501	556.2509155273439	-1143.749389648438	-256.6576538085938	552.0589599609376	-1159.28857421875	-232.2602996826172	585.6439208984376	-1131.455932617188	-222.7924499511719	502.5206298828126	-1169.725219726563	-147.4228973388672	460.7606506347657	-1174.74267578125	-116.6443557739258	443.5453186035157	-1053.369506835938	-122.0994567871094	324.5347595214844	-1145.439331054688	-192.7021179199219	322.9733886718751	-1197.081787109375	-159.7045440673828	297.9765930175782	-1176.631103515625	-205.7505035400391	229.3287658691407	-1149.898193359375	-350.1317443847657	90.16916656494142	-1161.400146484375	-319.1938171386719	93.9916229248047	-1075.217895507813	-419.0452270507814	51.00072097778322	-1111.5537109375	-192.5620269775391	62.18886947631837	-1117.843017578125	-193.6828613281251	60.25121688842775	-1164.541015625	-246.0932006835938	35.72888183593751	-1214.968383789063	-438.8154907226564	547.1127319335939	-671.3302001953126	-375.3280334472657	563.3493041992189	-659.1278076171876	-360.0043640136719	592.0648193359376	-666.0630493164064	-313.6168823242188	509.1466369628907	-645.0198364257814	-174.3294677734375	453.3744506835939	-622.2480468750001	-121.5273361206055	444.2650146484376	-745.9879150390626	-173.7928009033203	276.0123291015626	-699.4343872070314	-248.5048370361329	225.4806213378907	-634.0435791015626	-217.4545135498047	206.2634582519532	-663.0941162109376	-242.6579589843751	168.0554351806641	-699.0968627929689	-341.8810729980469	94.03067779541017	-657.7711791992189	-302.1131896972657	97.8955993652344	-742.3046264648439	-408.6472778320314	51.87252807617189	-719.5178833007814	-193.1051788330079	55.47457122802736	-682.7865600585939	-202.3137207031251	61.94544982910158	-630.9590454101564	-253.4737396240235	27.13197326660157	-586.9790649414064	
485	2.42	82.09297943115236	1080.242797851563	-833.2039794921877	-79.86328125000001	1050.683837890625	-906.609313964844	92.97511291503908	1089.75048828125	-975.1196289062502	-122.7932052612305	987.2605590820315	-926.3359375000002	-380.3474426269532	837.309509277344	-911.1738891601565	-39.29767990112305	836.0477294921877	-902.611267089844	0.7824158668518069	867.9421997070315	-1065.431396484375	-150.9010467529297	885.6900634765627	-1242.686157226563	-170.3327789306641	838.8520507812502	-1244.7041015625	-205.5538787841797	869.6668701171877	-1281.147705078125	-290.7513427734376	851.0960083007815	-1313.012939453125	-327.7703552246094	906.0383911132815	-1270.199584960938	-447.1307373046876	740.9127197265626	-1111.96142578125	-392.0341186523439	704.2467651367189	-1088.208374023438	-457.4440002441407	676.7503051757814	-1161.501586914063	-15.42641925811768	898.634948730469	-741.7925415039064	-181.6859588623047	946.2371826171877	-592.9281616210939	-201.6359100341797	900.2165527343752	-587.2065429687501	-240.9736633300782	931.117858886719	-556.6748657226564	-310.2953796386719	931.8956298828127	-527.1920776367189	-360.1906433105469	967.1299438476565	-594.5295410156251	-421.5450439453126	749.2762451171876	-696.0110473632814	-421.5439758300782	698.4194335937501	-632.7567749023439	-376.9046630859376	692.4906616210939	-726.9251098632814	-417.9780883789064	582.1405639648439	-1027.384887695313	-412.6231079101564	575.5507812500001	-800.646423339844	-505.1412658691407	760.6273193359376	-901.033142089844	-534.0285034179689	742.9501953125001	-928.4710693359377	-533.6013183593751	742.5715332031251	-871.7416992187502	-342.0885009765626	556.4619750976564	-1143.965209960938	-257.0452575683594	552.8485717773439	-1158.9638671875	-231.5577850341797	585.3369750976564	-1130.951293945313	-222.6463012695313	502.5691528320314	-1169.4853515625	-147.1721801757813	460.7524414062501	-1174.537109375	-116.6046218872071	443.6151123046876	-1053.092651367188	-122.0955886840821	324.5545959472657	-1145.285522460938	-192.6713867187501	323.0224304199219	-1196.940795898438	-159.674789428711	297.9902648925782	-1176.44287109375	-205.7080230712891	229.2938385009766	-1149.72900390625	-350.0947570800782	90.19312286376955	-1161.388061523438	-319.2224426269532	94.02207946777345	-1075.182861328125	-419.0225830078126	51.07480239868165	-1111.557861328125	-192.5470581054688	62.23153305053712	-1117.797729492188	-193.7343444824219	60.22922515869142	-1164.495483398438	-246.1033020019532	35.72777175903321	-1214.954223632813	-438.8435058593751	547.5061645507814	-671.2022094726564	-375.1846618652344	563.6170043945314	-659.0974731445314	-359.8616333007813	592.2131347656251	-666.0915527343751	-313.4420776367188	509.4300842285157	-645.0426025390626	-174.2397003173828	453.4413146972657	-622.3516845703126	-121.5653305053711	444.2563781738282	-746.0899658203126	-173.8268127441407	275.9922180175782	-699.4598999023439	-248.4936981201172	225.5260009765626	-634.0855712890626	-217.4578399658204	206.1090545654297	-663.1357421875001	-242.6521453857422	168.072738647461	-699.0952148437501	-341.8837280273438	94.04002380371095	-657.7765502929689	-302.0725402832032	97.87084960937503	-742.3496704101564	-408.6372680664064	51.81890106201173	-719.5100708007814	-193.0840148925782	55.49009323120119	-682.8278808593751	-202.291244506836	61.9049530029297	-630.9941406250001	-253.4910278320313	27.14554595947266	-586.9909667968751	
486	2.425	82.1216278076172	1081.229248046875	-833.0505981445315	-79.99477386474611	1051.303833007813	-906.4791259765627	92.82690429687501	1090.739379882813	-974.931091308594	-123.0541000366211	987.8551025390627	-926.1970214843752	-380.3029174804688	837.818786621094	-911.0910644531252	-39.29484558105469	836.7293090820315	-902.695495605469	0.9576678276062014	868.912780761719	-1065.485595703125	-150.9082794189453	886.5272216796877	-1242.675415039063	-170.3312530517578	839.3909912109377	-1244.681884765625	-205.3254699707032	870.6109619140627	-1281.263671875	-290.6782226562501	852.1326293945315	-1312.713500976563	-327.7229003906251	906.671081542969	-1270.084594726563	-447.109344482422	741.3319091796876	-1111.802978515625	-391.7112121582032	704.7059936523439	-1088.14013671875	-457.3013610839845	677.1804199218751	-1161.418579101563	-15.31711864471436	899.3334960937502	-741.8025512695314	-181.7149963378907	947.0090332031252	-592.8796386718751	-201.3636627197266	900.8736572265627	-587.1188964843751	-240.8909149169922	931.5745849609377	-556.5893554687501	-310.3159179687501	932.5962524414065	-526.9412841796876	-360.1661987304688	967.6527099609377	-594.5324096679689	-421.2430419921876	749.6752929687501	-695.8701171875001	-421.2090759277345	698.9193725585939	-632.6946411132814	-376.6367797851563	692.8598632812501	-726.9853515625001	-416.337615966797	582.9417724609376	-1026.539428710938	-411.5965270996095	576.9463500976564	-799.757507324219	-504.9929199218751	761.1880493164064	-900.9505615234377	-533.7022705078126	743.2409057617189	-928.3472290039065	-533.5183105468751	742.9459838867189	-871.5172119140627	-341.9603881835938	556.6565551757814	-1143.77978515625	-256.7640991210938	552.9712524414064	-1158.757080078125	-231.4058837890626	585.4431152343751	-1130.68115234375	-222.4197998046876	502.7279663085939	-1169.247314453125	-147.123291015625	460.7009582519532	-1174.248413085938	-116.5913391113282	443.6165771484376	-1052.824096679688	-122.1297302246094	324.4949645996094	-1145.03369140625	-192.7133331298829	323.0220642089844	-1196.705810546875	-159.6550750732422	298.8554382324219	-1176.374633789063	-205.7021789550782	229.2400207519532	-1149.609375	-350.1433715820313	90.20536041259767	-1161.379272460938	-319.2153930664063	94.00196838378908	-1075.160522460938	-419.0013427734376	51.05277633666994	-1111.568481445313	-192.5098724365235	62.20360946655275	-1117.78515625	-193.6805725097657	60.2483253479004	-1164.475952148438	-246.1065673828126	35.73774719238282	-1214.931396484375	-438.8454895019532	547.9591064453126	-671.1495971679689	-374.7532043457032	564.1154785156251	-659.1574707031251	-359.5643920898438	592.4865722656251	-666.1071777343751	-313.3732299804688	509.6937561035157	-645.0270996093751	-174.1872863769532	453.4867248535157	-622.4118652343751	-121.475326538086	444.3140563964845	-746.1754150390626	-173.7886657714844	275.9692687988282	-699.5492553710939	-248.4720611572266	225.5657958984376	-634.0904541015626	-217.4934997558594	206.0876464843751	-663.2030029296876	-242.6585540771485	168.0499725341797	-699.1008911132814	-341.8919677734376	94.0453338623047	-657.8173217773439	-302.0799865722657	97.89656066894534	-742.3632202148439	-408.6420288085939	51.87974929809572	-719.5053710937501	-193.0910034179688	55.49822235107423	-682.8307495117189	-202.3023376464844	61.95826339721681	-630.9913940429689	-253.4741363525391	27.1428623199463	-586.9955444335939	
487	2.43	81.11284637451173	1081.164306640625	-833.5559692382815	-80.14451599121095	1052.076782226563	-906.4473876953127	92.51926422119142	1091.527587890625	-974.9860839843752	-122.1407012939453	988.0360107421877	-926.4187622070315	-380.2647705078126	838.3323974609377	-911.0603027343752	-39.33556747436524	837.4057617187502	-902.6270751953127	0.8846233487129214	869.510925292969	-1065.51025390625	-151.0263671875	887.122741699219	-1242.5927734375	-170.3328552246094	840.0817871093752	-1244.67041015625	-205.6511230468751	871.215026855469	-1281.145874023438	-290.6943054199219	852.8787841796877	-1312.817749023438	-327.7923889160157	907.221618652344	-1269.888549804688	-446.9995422363282	741.6930541992189	-1111.702026367188	-391.8961181640626	704.9877319335939	-1087.87451171875	-456.849334716797	677.6114501953126	-1161.368408203125	-15.35919570922852	900.1187133789065	-741.8098144531251	-181.683349609375	947.3040161132815	-592.8392944335939	-201.1080627441407	901.3804931640627	-587.0461425781251	-240.7742309570313	932.0705566406252	-556.6689453125001	-310.1903076171876	933.0017700195315	-526.7946166992189	-360.0794982910157	968.0953369140627	-594.5280151367189	-421.0296020507814	749.9825439453126	-695.7970581054689	-420.5651245117189	699.4599609375001	-632.5159301757814	-377.3118591308594	692.4797363281251	-728.1048583984376	-418.0401611328126	582.4190063476564	-1026.7333984375	-413.4610290527345	576.0012817382814	-799.9465332031252	-504.7117614746095	761.4636840820314	-900.9207153320315	-533.6605224609376	743.8461914062501	-928.304870605469	-533.5504150390626	743.4205322265626	-871.4287719726565	-341.8005676269532	556.9089355468751	-1143.592529296875	-256.5751037597657	553.0355224609376	-1158.519897460938	-230.9957885742188	585.6243896484376	-1130.42529296875	-222.2524414062501	502.8201904296876	-1169.016479492188	-147.3454895019532	461.1723937988282	-1173.87451171875	-116.6037902832032	443.5910644531251	-1052.507446289063	-122.0914459228516	324.4804077148438	-1144.797729492188	-192.6668701171876	323.0329895019532	-1196.44775390625	-159.7078399658203	298.8401794433594	-1176.135131835938	-205.5049133300782	229.2813873291016	-1149.459716796875	-350.1551208496094	90.24391174316408	-1161.354370117188	-319.1935729980469	93.92704010009767	-1075.136840820313	-419.0724487304689	51.10384368896486	-1111.578735351563	-192.6077423095704	62.16724777221681	-1117.740112304688	-193.6669158935547	60.22022628784181	-1164.466064453125	-246.1308593750001	35.78108978271485	-1214.931030273438	-438.4238891601564	548.5004272460939	-671.2089843750001	-374.6134948730469	564.4666748046876	-659.1613159179689	-359.4317016601563	592.5961914062501	-666.1170043945314	-313.1556701660157	509.8100585937501	-645.0877075195314	-174.1631164550782	453.497039794922	-622.4725952148439	-121.503646850586	444.2727355957032	-746.2909545898439	-173.8135833740235	275.9732360839844	-699.5872192382814	-248.4864959716797	225.5352020263672	-634.1207275390626	-217.5117187500001	206.1040039062501	-663.2098388671876	-242.6054840087891	168.0457000732422	-699.1698608398439	-341.8890380859376	94.03639221191408	-657.8365478515626	-302.0680236816407	97.88101196289065	-742.3480834960939	-408.6679077148439	51.88507461547853	-719.4989013671876	-193.0826568603516	55.47987365722658	-682.8272705078126	-202.2516326904297	61.9347381591797	-630.9602050781251	-253.4493255615235	27.13084602355958	-587.0147705078126	
